<mxfile host="app.diagrams.net" modified="2024-05-26T08:36:49.812Z" agent="Mozilla/5.0 (Macintosh; Intel Mac OS X 10_15_7) AppleWebKit/537.36 (KHTML, like Gecko) Chrome/120.0.0.0 YaBrowser/24.1.0.0 Safari/537.36" etag="3EbWnPrVMr0eQqq-yND-" version="24.4.0" type="device">
  <diagram name="Страница — 1" id="IM-QX6ZLNCEZHHN6_Dzt">
    <mxGraphModel dx="977" dy="640" grid="1" gridSize="10" guides="1" tooltips="1" connect="1" arrows="1" fold="1" page="1" pageScale="1" pageWidth="827" pageHeight="1169" math="0" shadow="0">
      <root>
        <mxCell id="0" />
        <mxCell id="1" parent="0" />
        <mxCell id="VmiKSL2TkUbhx4qFSarh-19" value="" style="rounded=1;whiteSpace=wrap;html=1;" vertex="1" parent="1">
          <mxGeometry x="520" y="190" width="250" height="130" as="geometry" />
        </mxCell>
        <mxCell id="VmiKSL2TkUbhx4qFSarh-18" value="" style="rounded=1;whiteSpace=wrap;html=1;" vertex="1" parent="1">
          <mxGeometry x="310" y="375" width="200" height="110" as="geometry" />
        </mxCell>
        <mxCell id="VmiKSL2TkUbhx4qFSarh-17" value="" style="rounded=1;whiteSpace=wrap;html=1;" vertex="1" parent="1">
          <mxGeometry x="20" y="140" width="480" height="220" as="geometry" />
        </mxCell>
        <mxCell id="VmiKSL2TkUbhx4qFSarh-1" value="Actor" style="shape=umlActor;verticalLabelPosition=bottom;verticalAlign=top;html=1;outlineConnect=0;" vertex="1" parent="1">
          <mxGeometry x="670" y="60" width="30" height="60" as="geometry" />
        </mxCell>
        <mxCell id="VmiKSL2TkUbhx4qFSarh-14" style="edgeStyle=orthogonalEdgeStyle;rounded=0;orthogonalLoop=1;jettySize=auto;html=1;exitX=0.833;exitY=0;exitDx=0;exitDy=0;exitPerimeter=0;" edge="1" parent="1" source="VmiKSL2TkUbhx4qFSarh-2" target="VmiKSL2TkUbhx4qFSarh-1">
          <mxGeometry relative="1" as="geometry" />
        </mxCell>
        <mxCell id="VmiKSL2TkUbhx4qFSarh-2" value="&lt;font style=&quot;font-size: 14px;&quot;&gt;Интерфейс на streamlit&lt;/font&gt;" style="rounded=0;whiteSpace=wrap;html=1;" vertex="1" parent="1">
          <mxGeometry x="585" y="230" width="120" height="60" as="geometry" />
        </mxCell>
        <mxCell id="VmiKSL2TkUbhx4qFSarh-15" style="edgeStyle=orthogonalEdgeStyle;rounded=0;orthogonalLoop=1;jettySize=auto;html=1;exitX=1;exitY=0.5;exitDx=0;exitDy=0;entryX=0;entryY=0.5;entryDx=0;entryDy=0;" edge="1" parent="1" source="VmiKSL2TkUbhx4qFSarh-3" target="VmiKSL2TkUbhx4qFSarh-2">
          <mxGeometry relative="1" as="geometry" />
        </mxCell>
        <mxCell id="VmiKSL2TkUbhx4qFSarh-23" style="edgeStyle=orthogonalEdgeStyle;rounded=0;orthogonalLoop=1;jettySize=auto;html=1;exitX=0.5;exitY=1;exitDx=0;exitDy=0;" edge="1" parent="1" source="VmiKSL2TkUbhx4qFSarh-3" target="VmiKSL2TkUbhx4qFSarh-4">
          <mxGeometry relative="1" as="geometry" />
        </mxCell>
        <mxCell id="VmiKSL2TkUbhx4qFSarh-3" value="&lt;font style=&quot;font-size: 14px;&quot;&gt;FastApi&lt;/font&gt;" style="rounded=0;whiteSpace=wrap;html=1;" vertex="1" parent="1">
          <mxGeometry x="360" y="230" width="120" height="60" as="geometry" />
        </mxCell>
        <mxCell id="VmiKSL2TkUbhx4qFSarh-13" style="edgeStyle=orthogonalEdgeStyle;rounded=0;orthogonalLoop=1;jettySize=auto;html=1;entryX=0.5;entryY=1;entryDx=0;entryDy=0;" edge="1" parent="1" source="VmiKSL2TkUbhx4qFSarh-4" target="VmiKSL2TkUbhx4qFSarh-2">
          <mxGeometry relative="1" as="geometry" />
        </mxCell>
        <mxCell id="VmiKSL2TkUbhx4qFSarh-4" value="&lt;font style=&quot;font-size: 14px;&quot;&gt;БД postgresql&lt;/font&gt;" style="rounded=0;whiteSpace=wrap;html=1;" vertex="1" parent="1">
          <mxGeometry x="360" y="400" width="120" height="60" as="geometry" />
        </mxCell>
        <mxCell id="VmiKSL2TkUbhx4qFSarh-6" value="ML" style="swimlane;fontStyle=0;childLayout=stackLayout;horizontal=1;startSize=26;horizontalStack=0;resizeParent=1;resizeParentMax=0;resizeLast=0;collapsible=1;marginBottom=0;align=center;fontSize=14;" vertex="1" parent="1">
          <mxGeometry x="40" y="190" width="210" height="150" as="geometry" />
        </mxCell>
        <mxCell id="VmiKSL2TkUbhx4qFSarh-7" value="Apdex - IsolationForest" style="text;strokeColor=none;fillColor=none;spacingLeft=4;spacingRight=4;overflow=hidden;rotatable=0;points=[[0,0.5],[1,0.5]];portConstraint=eastwest;fontSize=12;whiteSpace=wrap;html=1;" vertex="1" parent="VmiKSL2TkUbhx4qFSarh-6">
          <mxGeometry y="26" width="210" height="30" as="geometry" />
        </mxCell>
        <mxCell id="VmiKSL2TkUbhx4qFSarh-8" value="Web response - IsolationForest" style="text;strokeColor=none;fillColor=none;spacingLeft=4;spacingRight=4;overflow=hidden;rotatable=0;points=[[0,0.5],[1,0.5]];portConstraint=eastwest;fontSize=12;whiteSpace=wrap;html=1;" vertex="1" parent="VmiKSL2TkUbhx4qFSarh-6">
          <mxGeometry y="56" width="210" height="30" as="geometry" />
        </mxCell>
        <mxCell id="VmiKSL2TkUbhx4qFSarh-9" value="Troughtput - HBOS" style="text;strokeColor=none;fillColor=none;spacingLeft=4;spacingRight=4;overflow=hidden;rotatable=0;points=[[0,0.5],[1,0.5]];portConstraint=eastwest;fontSize=12;whiteSpace=wrap;html=1;" vertex="1" parent="VmiKSL2TkUbhx4qFSarh-6">
          <mxGeometry y="86" width="210" height="34" as="geometry" />
        </mxCell>
        <mxCell id="VmiKSL2TkUbhx4qFSarh-11" value="Error - IsolationForest" style="text;strokeColor=none;fillColor=none;spacingLeft=4;spacingRight=4;overflow=hidden;rotatable=0;points=[[0,0.5],[1,0.5]];portConstraint=eastwest;fontSize=12;whiteSpace=wrap;html=1;" vertex="1" parent="VmiKSL2TkUbhx4qFSarh-6">
          <mxGeometry y="120" width="210" height="30" as="geometry" />
        </mxCell>
        <mxCell id="VmiKSL2TkUbhx4qFSarh-12" style="edgeStyle=orthogonalEdgeStyle;rounded=0;orthogonalLoop=1;jettySize=auto;html=1;exitX=0.999;exitY=0.466;exitDx=0;exitDy=0;exitPerimeter=0;" edge="1" parent="1" source="VmiKSL2TkUbhx4qFSarh-8" target="VmiKSL2TkUbhx4qFSarh-3">
          <mxGeometry relative="1" as="geometry" />
        </mxCell>
        <mxCell id="VmiKSL2TkUbhx4qFSarh-16" style="edgeStyle=orthogonalEdgeStyle;rounded=0;orthogonalLoop=1;jettySize=auto;html=1;exitX=0;exitY=0.5;exitDx=0;exitDy=0;entryX=0.477;entryY=0.984;entryDx=0;entryDy=0;entryPerimeter=0;" edge="1" parent="1" source="VmiKSL2TkUbhx4qFSarh-4" target="VmiKSL2TkUbhx4qFSarh-11">
          <mxGeometry relative="1" as="geometry" />
        </mxCell>
        <mxCell id="VmiKSL2TkUbhx4qFSarh-21" value="Back docker container" style="text;strokeColor=none;align=center;fillColor=none;html=1;verticalAlign=middle;whiteSpace=wrap;rounded=0;" vertex="1" parent="1">
          <mxGeometry x="30" y="140" width="140" height="30" as="geometry" />
        </mxCell>
        <mxCell id="VmiKSL2TkUbhx4qFSarh-22" value="Postgres docker container" style="text;strokeColor=none;align=center;fillColor=none;html=1;verticalAlign=middle;whiteSpace=wrap;rounded=0;" vertex="1" parent="1">
          <mxGeometry x="310" y="375" width="156" height="30" as="geometry" />
        </mxCell>
        <mxCell id="VmiKSL2TkUbhx4qFSarh-24" value="Front&lt;span style=&quot;background-color: initial;&quot;&gt;&amp;nbsp;docker container&lt;/span&gt;" style="text;strokeColor=none;align=center;fillColor=none;html=1;verticalAlign=middle;whiteSpace=wrap;rounded=0;" vertex="1" parent="1">
          <mxGeometry x="520" y="190" width="140" height="30" as="geometry" />
        </mxCell>
      </root>
    </mxGraphModel>
  </diagram>
</mxfile>
